<?xml version="1.0" standalone="no"?>
<!DOCTYPE svg PUBLIC "-//W3C//DTD SVG 20010904//EN"
 "http://www.w3.org/TR/2001/REC-SVG-20010904/DTD/svg10.dtd">
<svg version="1.0" xmlns="http://www.w3.org/2000/svg"
 width="512.000000pt" height="512.000000pt" viewBox="0 0 512.000000 512.000000"
 preserveAspectRatio="xMidYMid meet">
<metadata>
Created by potrace 1.11, written by Peter Selinger 2001-2013
</metadata>
<g transform="translate(0.000000,512.000000) scale(0.100000,-0.100000)"
fill="#000000" stroke="none">
<path d="M0 2560 l0 -2560 2560 0 2560 0 0 2560 0 2560 -2560 0 -2560 0 0
-2560z m1025 1980 c-3 -6 34 -10 96 -12 l102 -3 -94 -70 c-196 -147 -416 -383
-555 -595 -420 -644 -503 -1464 -218 -2171 424 -1057 1520 -1661 2639 -1454
970 180 1736 960 1899 1935 106 634 -51 1289 -431 1802 -143 192 -317 367
-496 496 l-78 57 112 3 111 3 57 -47 c98 -83 293 -286 372 -389 348 -456 522
-971 522 -1540 -1 -398 -83 -750 -259 -1105 -492 -994 -1578 -1546 -2672
-1360 -496 85 -943 312 -1308 663 -223 214 -382 430 -515 702 -168 344 -245
656 -256 1045 -4 165 -2 221 17 365 74 579 318 1074 727 1477 92 91 221 206
231 208 2 0 0 -4 -3 -10z m1105 -32 c-710 -160 -1287 -703 -1484 -1397 -237
-836 91 -1725 813 -2204 586 -388 1331 -438 1966 -132 315 152 585 387 785
684 246 367 358 792 329 1246 -58 868 -687 1602 -1544 1800 l-100 24 133 0
c128 1 136 0 230 -35 644 -237 1129 -773 1291 -1426 17 -67 38 -170 47 -228
20 -140 20 -411 -1 -559 -138 -969 -929 -1706 -1900 -1770 -496 -32 -975 109
-1370 404 -100 74 -287 256 -368 355 -222 275 -372 612 -433 975 -25 144 -25
472 -1 620 26 158 70 321 123 454 219 551 666 982 1225 1179 103 36 108 37
225 33 l119 -3 -85 -20z m-427 -1001 c-22 -24 -50 -69 -61 -100 -38 -102 -43
-192 -35 -759 l6 -538 161 0 c103 0 186 6 231 15 101 21 206 76 271 142 65 66
63 79 29 -186 -35 -265 -25 -239 -82 -230 -27 4 -281 8 -567 8 l-518 1 32 37
c41 46 75 123 89 198 7 38 11 263 11 625 0 470 -3 576 -15 623 -19 74 -49 134
-88 175 l-31 32 303 0 304 0 -40 -43z m1261 11 c-34 -41 -68 -117 -83 -186 -7
-35 -11 -201 -11 -483 0 -353 3 -444 16 -506 26 -129 66 -186 164 -232 49 -23
67 -26 170 -26 106 0 119 2 173 29 90 44 137 118 163 256 19 109 19 868 0 961
-15 71 -43 134 -84 187 l-24 32 293 0 293 0 -31 -32 c-34 -36 -64 -90 -84
-153 -9 -29 -14 -173 -19 -520 -6 -450 -8 -485 -28 -560 -66 -241 -195 -374
-427 -437 -119 -32 -357 -32 -470 0 -255 73 -391 245 -435 547 -5 39 -10 252
-10 475 0 322 -3 418 -15 468 -18 77 -48 137 -88 180 l-31 32 298 0 298 0 -28
-32z m33 -2104 c219 -114 409 -213 421 -221 23 -14 7 -24 -397 -234 -232 -120
-426 -219 -433 -219 -13 0 -848 433 -848 440 1 7 832 439 847 440 6 0 191 -93
410 -206z"/>
<path d="M2250 1180 l0 -150 25 0 c24 0 25 3 25 59 l0 58 46 6 c60 6 94 38 94
86 -1 65 -38 91 -129 91 l-61 0 0 -150z m124 87 c10 -7 17 -22 15 -33 -3 -15
-14 -20 -47 -22 l-42 -3 0 35 c0 33 3 36 28 36 16 0 36 -6 46 -13z"/>
<path d="M2480 1180 l0 -150 25 0 c24 0 25 3 25 60 l0 60 50 0 50 0 0 -60 c0
-57 1 -60 25 -60 l25 0 0 150 0 150 -25 0 c-24 0 -25 -3 -25 -60 l0 -60 -50 0
-50 0 0 60 c0 57 -1 60 -25 60 l-25 0 0 -150z"/>
<path d="M2730 1180 l0 -150 30 0 c30 0 30 0 30 59 l0 58 47 6 c88 10 122 89
64 148 -27 27 -35 29 -100 29 l-71 0 0 -150z m117 94 c51 -14 33 -64 -23 -64
-32 0 -34 2 -34 35 0 37 9 42 57 29z"/>
</g>
</svg>
